{
  "accessors": [
    {
      "bufferView": 2,
      "componentType": 5126,
      "count": 65534,
      "max": [
        0.5795509219169617,
        3.9480433464050293,
        0.0692484974861145
      ],
      "min": [
        -13.026812553405762,
        -11.20349407196045,
        -0.04981856793165207
      ],
      "type": "VEC3"
    },
    {
      "bufferView": 2,
      "byteOffset": 786408,
      "componentType": 5126,
      "count": 65534,
      "max": [
        1.0,
        1.0,
        1.0
      ],
      "min": [
        -1.0,
        -1.0,
        -1.0
      ],
      "type": "VEC3"
    },
    {
      "bufferView": 3,
      "componentType": 5126,
      "count": 65534,
      "max": [
        1.0,
        1.0,
        1.0,
        1.0
      ],
      "min": [
        -1.0,
        -1.0,
        -1.0,
        -1.0
      ],
      "type": "VEC4"
    },
    {
      "bufferView": 1,
      "componentType": 5126,
      "count": 65534,
      "max": [
        0.9982606172561646,
        0.9747593998908997
      ],
      "min": [
        0.0017394949682056904,
        0.0017394423484802246
      ],
      "type": "VEC2"
    },
    {
      "bufferView": 1,
      "byteOffset": 524272,
      "componentType": 5126,
      "count": 65534,
      "max": [
        0.9982606172561646,
        0.9747593998908997
      ],
      "min": [
        0.0017394949682056904,
        0.0017394423484802246
      ],
      "type": "VEC2"
    },
    {
      "bufferView": 1,
      "byteOffset": 1048544,
      "componentType": 5126,
      "count": 65534,
      "max": [
        0.9982606172561646,
        0.9747593998908997
      ],
      "min": [
        0.0017394949682056904,
        0.0017394423484802246
      ],
      "type": "VEC2"
    },
    {
      "bufferView": 0,
      "componentType": 5125,
      "count": 233409,
      "type": "SCALAR"
    },
    {
      "bufferView": 2,
      "byteOffset": 1572816,
      "componentType": 5126,
      "count": 9283,
      "max": [
        0.5794662833213806,
        3.9477028846740723,
        0.0692484974861145
      ],
      "min": [
        -13.026668548583984,
        -11.203377723693848,
        -0.049198396503925323
      ],
      "type": "VEC3"
    },
    {
      "bufferView": 2,
      "byteOffset": 1684212,
      "componentType": 5126,
      "count": 9283,
      "max": [
        1.0,
        0.9981263279914856,
        0.9999999403953552
      ],
      "min": [
        -1.0,
        -0.9985120892524719,
        -0.9999908804893494
      ],
      "type": "VEC3"
    },
    {
      "bufferView": 3,
      "byteOffset": 1048544,
      "componentType": 5126,
      "count": 9283,
      "max": [
        1.0,
        1.0,
        0.9999999403953552,
        1.0
      ],
      "min": [
        -1.0,
        -1.0,
        -0.9999997019767761,
        -1.0
      ],
      "type": "VEC4"
    },
    {
      "bufferView": 1,
      "byteOffset": 1572816,
      "componentType": 5126,
      "count": 9283,
      "max": [
        0.9981439113616943,
        0.9747593998908997
      ],
      "min": [
        0.001739680883474648,
        0.0017394423484802246
      ],
      "type": "VEC2"
    },
    {
      "bufferView": 1,
      "byteOffset": 1647080,
      "componentType": 5126,
      "count": 9283,
      "max": [
        0.9981439113616943,
        0.9747593998908997
      ],
      "min": [
        0.001739680883474648,
        0.0017394423484802246
      ],
      "type": "VEC2"
    },
    {
      "bufferView": 1,
      "byteOffset": 1721344,
      "componentType": 5126,
      "count": 9283,
      "max": [
        0.9981439113616943,
        0.9747593998908997
      ],
      "min": [
        0.001739680883474648,
        0.0017394423484802246
      ],
      "type": "VEC2"
    },
    {
      "bufferView": 0,
      "byteOffset": 933636,
      "componentType": 5125,
      "count": 27711,
      "type": "SCALAR"
    },
    {
      "bufferView": 2,
      "byteOffset": 1795608,
      "componentType": 5126,
      "count": 384,
      "max": [
        0.47493648529052734,
        2.86368465423584,
        -0.04186779260635376
      ],
      "min": [
        -12.90975284576416,
        -8.286895751953125,
        -0.3483816981315613
      ],
      "type": "VEC3"
    },
    {
      "bufferView": 2,
      "byteOffset": 1800216,
      "componentType": 5126,
      "count": 384,
      "max": [
        0.9672988057136536,
        0.9672995209693909,
        0.9673002362251282
      ],
      "min": [
        -0.9672921895980835,
        -0.9673100113868713,
        -0.9672976732254028
      ],
      "type": "VEC3"
    },
    {
      "bufferView": 3,
      "byteOffset": 1197072,
      "componentType": 5126,
      "count": 384,
      "max": [
        0.4040887653827667,
        0.9869617223739624,
        0.3695354163646698,
        1.0
      ],
      "min": [
        -0.404037207365036,
        -0.3874676823616028,
        -0.9855495095252991,
        1.0
      ],
      "type": "VEC4"
    },
    {
      "bufferView": 1,
      "byteOffset": 1795608,
      "componentType": 5126,
      "count": 384,
      "max": [
        0.16729095578193665,
        1.0
      ],
      "min": [
        0.0,
        0.0
      ],
      "type": "VEC2"
    },
    {
      "bufferView": 1,
      "byteOffset": 1798680,
      "componentType": 5126,
      "count": 384,
      "max": [
        0.16729095578193665,
        1.0
      ],
      "min": [
        0.0,
        0.0
      ],
      "type": "VEC2"
    },
    {
      "bufferView": 1,
      "byteOffset": 1801752,
      "componentType": 5126,
      "count": 384,
      "max": [
        0.16729095578193665,
        1.0
      ],
      "min": [
        0.0,
        0.0
      ],
      "type": "VEC2"
    },
    {
      "bufferView": 0,
      "byteOffset": 1044480,
      "componentType": 5125,
      "count": 1296,
      "type": "SCALAR"
    }
  ],
  "asset": {
    "extras": {
      "author": "Intee Assets (https://sketchfab.com/Intee)",
      "license": "CC-BY-4.0 (http://creativecommons.org/licenses/by/4.0/)",
      "source": "https://sketchfab.com/3d-models/bloody-and-clean-wooden-floor-tiles-cb6b29abee974b3ea4266e804d1460ae",
      "title": "Bloody and Clean Wooden Floor Tiles"
    },
    "generator": "Sketchfab-12.74.0",
    "version": "2.0"
  },
  "bufferViews": [
    {
      "buffer": 0,
      "byteLength": 1049664,
      "name": "floatBufferViews",
      "target": 34963
    },
    {
      "buffer": 0,
      "byteLength": 1804824,
      "byteOffset": 1049664,
      "byteStride": 8,
      "name": "floatBufferViews",
      "target": 34962
    },
    {
      "buffer": 0,
      "byteLength": 1804824,
      "byteOffset": 2854488,
      "byteStride": 12,
      "name": "floatBufferViews",
      "target": 34962
    },
    {
      "buffer": 0,
      "byteLength": 1203216,
      "byteOffset": 4659312,
      "byteStride": 16,
      "name": "floatBufferViews",
      "target": 34962
    }
  ],
  "buffers": [
    {
      "byteLength": 5862528,
      "uri": "scene.bin"
    }
  ],
  "images": [
    {
      "uri": "textures/Floor_baseColor.png"
    },
    {
      "uri": "textures/Floor_metallicRoughness.png"
    },
    {
      "uri": "textures/Floor_normal.png"
    },
    {
      "uri": "textures/Beams_baseColor.png"
    },
    {
      "uri": "textures/Beams_metallicRoughness.png"
    },
    {
      "uri": "textures/Beams_normal.png"
    }
  ],
  "materials": [
    {
      "doubleSided": true,
      "name": "Floor",
      "normalTexture": {
        "index": 2,
        "texCoord": 1
      },
      "pbrMetallicRoughness": {
        "baseColorTexture": {
          "index": 0
        },
        "metallicRoughnessTexture": {
          "index": 1
        }
      }
    },
    {
      "doubleSided": true,
      "name": "Beams",
      "normalTexture": {
        "index": 5
      },
      "pbrMetallicRoughness": {
        "baseColorTexture": {
          "index": 3
        },
        "metallicRoughnessTexture": {
          "index": 4
        }
      }
    }
  ],
  "meshes": [
    {
      "name": "Plank.089_Floor_0",
      "primitives": [
        {
          "attributes": {
            "NORMAL": 1,
            "POSITION": 0,
            "TANGENT": 2,
            "TEXCOORD_0": 3,
            "TEXCOORD_1": 4,
            "TEXCOORD_2": 5
          },
          "indices": 6,
          "material": 0,
          "mode": 4
        }
      ]
    },
    {
      "name": "Plank.089_Floor_0",
      "primitives": [
        {
          "attributes": {
            "NORMAL": 8,
            "POSITION": 7,
            "TANGENT": 9,
            "TEXCOORD_0": 10,
            "TEXCOORD_1": 11,
            "TEXCOORD_2": 12
          },
          "indices": 13,
          "material": 0,
          "mode": 4
        }
      ]
    },
    {
      "name": "Plane_Beams_0",
      "primitives": [
        {
          "attributes": {
            "NORMAL": 15,
            "POSITION": 14,
            "TANGENT": 16,
            "TEXCOORD_0": 17,
            "TEXCOORD_1": 18,
            "TEXCOORD_2": 19
          },
          "indices": 20,
          "material": 1,
          "mode": 4
        }
      ]
    }
  ],
  "nodes": [
    {
      "children": [
        1
      ],
      "matrix": [
        1.0,
        0.0,
        0.0,
        0.0,
        0.0,
        2.220446049250313e-16,
        -1.0,
        0.0,
        0.0,
        1.0,
        2.220446049250313e-16,
        0.0,
        0.0,
        0.0,
        0.0,
        1.0
      ],
      "name": "Sketchfab_model"
    },
    {
      "children": [
        2
      ],
      "matrix": [
        0.009999999776482582,
        0.0,
        0.0,
        0.0,
        0.0,
        0.0,
        0.009999999776482582,
        0.0,
        0.0,
        -0.009999999776482582,
        0.0,
        0.0,
        0.0,
        0.0,
        0.0,
        1.0
      ],
      "name": "e9203da58d614e02bab9ac685f0ba997.fbx"
    },
    {
      "children": [
        3,
        6
      ],
      "name": "RootNode"
    },
    {
      "children": [
        4,
        5
      ],
      "matrix": [
        100.0,
        0.0,
        0.0,
        0.0,
        0.0,
        -1.629206793918314e-05,
        -99.99999999999868,
        0.0,
        0.0,
        99.99999999999868,
        -1.629206793918314e-05,
        0.0,
        0.0,
        0.0,
        0.0,
        1.0
      ],
      "name": "Plank.089"
    },
    {
      "mesh": 0,
      "name": "Plank.089_Floor_0"
    },
    {
      "mesh": 1,
      "name": "Plank.089_Floor_0"
    },
    {
      "children": [
        7
      ],
      "matrix": [
        100.0,
        0.0,
        0.0,
        0.0,
        0.0,
        -0.22132815741833234,
        -99.99975506893371,
        0.0,
        0.0,
        99.99975506893371,
        -0.22132815741833234,
        0.0,
        0.0,
        0.0,
        0.0,
        1.0
      ],
      "name": "Plane"
    },
    {
      "mesh": 2,
      "name": "Plane_Beams_0"
    }
  ],
  "samplers": [
    {
      "magFilter": 9729,
      "minFilter": 9987,
      "wrapS": 10497,
      "wrapT": 10497
    }
  ],
  "scene": 0,
  "scenes": [
    {
      "name": "Sketchfab_Scene",
      "nodes": [
        0
      ]
    }
  ],
  "textures": [
    {
      "sampler": 0,
      "source": 0
    },
    {
      "sampler": 0,
      "source": 1
    },
    {
      "sampler": 0,
      "source": 2
    },
    {
      "sampler": 0,
      "source": 3
    },
    {
      "sampler": 0,
      "source": 4
    },
    {
      "sampler": 0,
      "source": 5
    }
  ]
}
