{
    "asset": {
        "generator": "Khronos glTF Blender I/O v3.6.27",
        "version": "2.0"
    },
    "scene": 0,
    "scenes": [
        {
            "name": "Scene",
            "nodes": [
                0
            ]
        }
    ],
    "nodes": [
        {
            "mesh": 0,
            "name": "tguocjppa_LOD0_TIER0_000",
            "rotation": [
                0.7071068286895752,
                0,
                0,
                0.7071068286895752
            ],
            "scale": [
                0.009999999776482582,
                0.009999999776482582,
                0.009999999776482582
            ]
        }
    ],
    "materials": [
        {
            "doubleSided": true,
            "name": "MI_tguocjppa",
            "normalTexture": {
                "index": 0
            },
            "occlusionTexture": {
                "index": 1
            },
            "pbrMetallicRoughness": {
                "baseColorTexture": {
                    "index": 2
                },
                "metallicRoughnessTexture": {
                    "index": 1
                }
            }
        }
    ],
    "meshes": [
        {
            "name": "S_tguocjppa_tier_0",
            "primitives": [
                {
                    "attributes": {
                        "POSITION": 0,
                        "NORMAL": 1,
                        "TEXCOORD_0": 2,
                        "TANGENT": 3
                    },
                    "indices": 4,
                    "material": 0
                }
            ]
        }
    ],
    "textures": [
        {
            "sampler": 0,
            "source": 0
        },
        {
            "sampler": 0,
            "source": 1
        },
        {
            "sampler": 0,
            "source": 2
        }
    ],
    "images": [
        {
            "mimeType": "image/png",
            "name": "T_tguocjppa_4K_N",
            "uri": "Textures/T_tguocjppa_4K_N.png"
        },
        {
            "mimeType": "image/png",
            "name": "T_tguocjppa_4K_ORM",
            "uri": "Textures/T_tguocjppa_4K_ORM.png",
            "extras": {
                "compression": "mask"
            }
        },
        {
            "mimeType": "image/png",
            "name": "T_tguocjppa_4K_B",
            "uri": "Textures/T_tguocjppa_4K_B.png"
        }
    ],
    "accessors": [
        {
            "bufferView": 0,
            "componentType": 5126,
            "count": 545485,
            "max": [
                9.938135147094727,
                10.244051933288574,
                9.905776023864746
            ],
            "min": [
                -9.92767333984375,
                -10.263224601745605,
                -9.913464546203613
            ],
            "type": "VEC3"
        },
        {
            "bufferView": 1,
            "componentType": 5126,
            "count": 545485,
            "type": "VEC3"
        },
        {
            "bufferView": 2,
            "componentType": 5126,
            "count": 545485,
            "type": "VEC2"
        },
        {
            "bufferView": 3,
            "componentType": 5126,
            "count": 545485,
            "type": "VEC4"
        },
        {
            "bufferView": 4,
            "componentType": 5125,
            "count": 3233202,
            "type": "SCALAR"
        }
    ],
    "bufferViews": [
        {
            "buffer": 0,
            "byteLength": 6545820,
            "byteOffset": 0,
            "target": 34962
        },
        {
            "buffer": 0,
            "byteLength": 6545820,
            "byteOffset": 6545820,
            "target": 34962
        },
        {
            "buffer": 0,
            "byteLength": 4363880,
            "byteOffset": 13091640,
            "target": 34962
        },
        {
            "buffer": 0,
            "byteLength": 8727760,
            "byteOffset": 17455520,
            "target": 34962
        },
        {
            "buffer": 0,
            "byteLength": 12932808,
            "byteOffset": 26183280,
            "target": 34963
        }
    ],
    "samplers": [
        {
            "magFilter": 9729,
            "minFilter": 9987
        }
    ],
    "buffers": [
        {
            "byteLength": 39116088,
            "uri": "tguocjppa_tier_0.bin"
        }
    ]
}